<svg xmlns="http://www.w3.org/2000/svg" version="1.1" xmlns:xlink="http://www.w3.org/1999/xlink" xmlns:svgjs="http://svgjs.dev/svgjs" width="2000" height="1914" viewBox="0 0 2000 1914"><g transform="matrix(1,0,0,1,-0.16651400877788092,0.7763297288636295)"><svg viewBox="0 0 258 247" data-background-color="#ebe6c8" preserveAspectRatio="xMidYMid meet" height="1914" width="2000" xmlns="http://www.w3.org/2000/svg" xmlns:xlink="http://www.w3.org/1999/xlink"><g id="tight-bounds" transform="matrix(1,0,0,1,0.021651368710450924,-0.09997365579206985)"><svg viewBox="0 0 257.95686832415726 247.2" height="247.2" width="257.95686832415726"><g><svg viewBox="0 0 257.95686832415726 247.2" height="247.2" width="257.95686832415726"><g><svg viewBox="0 0 257.95686832415726 247.2" height="247.2" width="257.95686832415726"><g id="textblocktransform"><svg viewBox="0 0 257.95686832415726 247.2" height="247.2" width="257.95686832415726" id="textblock"><g><svg viewBox="0 0 257.95686832415726 247.2" height="247.2" width="257.95686832415726"><path d="M257.353 53.02C256.14 27.36 252.684 20.227 252.684 20.227 242.073-6.202 228.83-0.506 216.933 3.292 195.929 3.446 175.01 9.091 154.054 12.119 110.069 12.581 65.708 4.986 21.942 23.717 17.83 29.464-4.265 24.846 0.731 56.304 2.041 69.39 6.819 83.913 6.674 95.922 7.328 98.026 8.238 93.202 8.626 96.23 9.984 104.39 12.203 100.541 14.023 105.365 11.488 118.246 13.307 128.971 15.041 140.21 11.985 143.135 8.068 141.749 6.31 151.449 6.128 158.479 5.146 157.145 4.066 156.837 3.278 156.632 1.689 157.402 1.956 159.608 2.866 167.152-1.039 171.514 1.41 178.904-0.275 186.91 2.575 193.838 2.187 202.511 2.138 204.255 2.405 205.744 2.829 206.154 4.709 208.361 1.968 212.672 2.259 217.342 21.541 249.262 42.461 227.195 62.216 241.872 67.345 231.608 63.489 245.516 65.539 243.36 67.139 240.846 68.303 251.263 70.11 245.362 70.389 243.668 69.965 239.665 70.959 240.435 71.481 240.846 71.942 240.743 72.014 238.382 72.124 234.841 71.165 237.048 70.911 235.201 73.664 225.861 72.985 248.081 75.568 247.158 75.446 244.438 74.694 240.538 76.235 241.051 77.763 237.151 77.811 233.918 79.169 242.693 79.218 244.592 79.46 245.926 79.848 246.85 84.093 237.305 88.313 250.237 92.764 245.926 95.492 241.205 98.112 248.492 100.877 246.696 101.847 245.259 102.829 242.693 103.763 247.004 115.199 247.928 127.387 244.079 138.228 247.158 167.2 241.41 198.161 249.518 228.709 241.923 235.912 238.998 243.395 234.841 250.416 231.506 250.416 231.506 256.104 222.371 256.104 181.316S257.317 145.393 257.498 112.703C257.68 80.013 258.529 78.679 257.317 53.02Z" opacity="1" fill="#f96420" data-fill-palette-color="tertiary"></path><g transform="matrix(1,0,0,1,55.76832,26.230666666666668)"><svg width="146.42022832415725" viewBox="0.228610922227 -36 27.253531242892997 36.25" height="194.73866666666666" data-palette-color="#ffffff"><path d="M10.5-7.65L10.5-7.65Q12.4-9.45 13.93-11.25 15.45-13.05 16.78-15.28 18.1-17.5 19.23-20.38 20.35-23.25 21.45-27.15L21.45-27.15Q22.05-29.4 22.48-31.5 22.9-33.6 22.8-35.6L22.8-35.6Q22.8-36 22.85-36L22.85-36Q22.95-36 23-35.85 23.05-35.7 23.1-35.6L23.1-35.6Q23.85-33.25 23.6-30.68 23.35-28.1 22.65-25.43 21.95-22.75 21.03-20 20.1-17.25 19.45-14.5L19.45-14.5Q19.05-12.8 18.85-10.9 18.65-9 18.73-7.13 18.8-5.25 19.2-3.45 19.6-1.65 20.45-0.1L20.45-0.1Q20.5-0.05 20.5 0.05L20.5 0.05 20.5 0.15Q20.35 0.15 20.3 0.1L20.3 0.1 20.2 0Q18.25-2.1 17.55-5.15L17.55-5.15Q16.85-4.3 16.13-3.5 15.4-2.7 14.1-1.85L14.1-1.85Q12-0.45 9.43 0.08 6.85 0.6 4.3-0.6L4.3-0.6Q2.8-1.35 2-2.58 1.2-3.8 0.83-5.23 0.45-6.65 0.38-8.13 0.3-9.6 0.25-10.8L0.25-10.8Q0.15-13.15 0.48-15.35 0.8-17.55 1.35-19.48 1.9-21.4 2.6-22.95 3.3-24.5 3.95-25.55L3.95-25.55Q4-25.65 4.13-25.78 4.25-25.9 4.3-25.9L4.3-25.9Q4.4-25.85 4.33-25.63 4.25-25.4 4.2-25.3L4.2-25.3Q3.45-23.05 2.85-20.7 2.25-18.35 1.95-15.95 1.65-13.55 1.73-11.13 1.8-8.7 2.4-6.25L2.4-6.25Q2.65-5.25 3.15-4.17 3.65-3.1 4.8-2.25L4.8-2.25Q5.45-1.75 6.15-1.55 6.85-1.35 7.5-1.33 8.15-1.3 8.72-1.4 9.3-1.5 9.8-1.65L9.8-1.65Q12.05-2.2 13.68-3.65 15.3-5.1 16.45-6.6L16.45-6.6Q16.9-7.1 17.2-7.75L17.2-7.75Q17.15-8.7 17.25-9.95 17.35-11.2 17.5-12.3 17.65-13.4 17.75-14.15 17.85-14.9 17.8-14.85L17.8-14.85Q16.65-12.3 15.08-10.38 13.5-8.45 12.35-7.25L12.35-7.25Q11.6-6.45 10.68-5.85 9.75-5.25 8.85-5 7.95-4.75 7.2-5 6.45-5.25 6.1-6.15L6.1-6.15Q5.4-8.2 5.1-10.68 4.8-13.15 5.05-15.7L5.05-15.7Q5.6-20.8 7.48-25.75 9.35-30.7 12.75-34.8L12.75-34.8Q12.95-35.05 13.13-35.15 13.3-35.25 13-34.75L13-34.75Q11.9-33.05 10.88-30.85 9.85-28.65 9.03-26.23 8.2-23.8 7.58-21.25 6.95-18.7 6.7-16.3L6.7-16.3Q6.45-13.9 6.5-11.58 6.55-9.25 7.25-7.45L7.25-7.45Q7.5-6.8 7.93-6.63 8.35-6.45 8.8-6.58 9.25-6.7 9.7-7.03 10.15-7.35 10.5-7.65ZM11.3-3.65L11.3-3.65Q10.75-3.35 10.15-3.05 9.55-2.75 8.93-2.58 8.3-2.4 7.6-2.4 6.9-2.4 6.15-2.65L6.15-2.65Q4.7-3.15 4.08-4.33 3.45-5.5 3.1-6.6L3.1-6.6Q2.3-9 2.38-11.38 2.45-13.75 2.75-16.45L2.75-16.45Q2.95-18.35 3.58-20.63 4.2-22.9 5.15-25.15 6.1-27.4 7.28-29.35 8.45-31.3 9.75-32.55L9.75-32.55Q9.85-32.65 10.13-32.93 10.4-33.2 10.5-33.1L10.5-33.1Q10.55-33.05 10.05-32.25L10.05-32.25Q9.55-31.45 8.85-30.1 8.15-28.75 7.45-27.03 6.75-25.3 6.08-23.33 5.4-21.35 4.95-19.25L4.95-19.25Q4.5-17.2 4.35-15.25 4.2-13.3 4.23-11.68 4.25-10.05 4.38-8.93 4.5-7.8 4.6-7.4L4.6-7.4Q4.85-6.4 5.33-5.33 5.8-4.25 6.65-3.85L6.65-3.85Q7.5-3.45 8.78-3.6 10.05-3.75 11.05-4.3L11.05-4.3Q11.1-4.35 11.35-4.5 11.6-4.65 11.88-4.83 12.15-5 12.38-5.13 12.6-5.25 12.65-5.2L12.65-5.2Q12.7-5.1 12.6-4.9 12.5-4.7 12.28-4.45 12.05-4.2 11.78-3.98 11.5-3.75 11.3-3.65ZM24.85-14.05L24.85-14.05Q24.25-11.65 23.43-9.15 22.6-6.65 22-4.8L22-4.8Q21.9-4.55 21.8-4.3 21.7-4.05 21.6-4.1L21.6-4.1Q21.45-4.15 21.45-4.42 21.45-4.7 21.45-4.95L21.45-4.95Q21.65-8.7 22.58-12.4 23.5-16.1 24.65-19.85L24.65-19.85Q25.35-22.2 25.98-24.63 26.6-27.05 26.7-29.85L26.7-29.85Q26.7-30.2 26.8-30.2L26.8-30.2Q26.95-30.2 27.05-29.85L27.05-29.85Q27.6-28.5 27.45-26.38 27.3-24.25 26.83-21.95 26.35-19.65 25.75-17.5 25.15-15.35 24.85-14.05ZM25.4-25L25.4-25Q24.7-22.3 23.9-19.45 23.1-16.6 21.65-14.05L21.65-14.05Q21.55-13.9 21.33-13.53 21.1-13.15 20.95-13.2L20.95-13.2Q20.85-13.2 20.85-13.6 20.85-14 20.9-14.25L20.9-14.25Q20.95-14.85 21.1-15.73 21.25-16.6 21.48-17.53 21.7-18.45 21.93-19.33 22.15-20.2 22.35-20.8L22.35-20.8Q22.45-21.1 22.68-21.98 22.9-22.85 23.15-24.05 23.4-25.25 23.65-26.68 23.9-28.1 24.08-29.5 24.25-30.9 24.3-32.15 24.35-33.4 24.2-34.3L24.2-34.3Q24.1-34.75 24.25-34.75L24.25-34.75Q24.35-34.75 24.45-34.65 24.55-34.55 24.6-34.45L24.6-34.45Q25.2-33.6 25.48-32.4 25.75-31.2 25.83-29.9 25.9-28.6 25.78-27.3 25.65-26 25.4-25ZM20.9-3.4L20.9-3.4Q21.05-2.4 21.23-1.6 21.4-0.8 21.85-0.05L21.85-0.05Q21.9 0 21.93 0.13 21.95 0.25 21.85 0.25L21.85 0.25Q21.6 0.25 21.35 0L21.35 0Q20.8-0.65 20.45-1.25 20.1-1.85 19.8-3.35L19.8-3.35Q19.7-3.95 19.65-4.8 19.6-5.65 19.65-6.45 19.7-7.25 19.83-7.78 19.95-8.3 20.15-8.3L20.15-8.3Q20.2-8.3 20.28-8.03 20.35-7.75 20.43-7.43 20.5-7.1 20.53-6.78 20.55-6.45 20.55-6.35L20.55-6.35Q20.7-4.8 20.9-3.4Z" opacity="1" transform="matrix(1,0,0,1,0,0)" fill="#ffffff" class="wordmark-text-0" data-fill-palette-color="quaternary" id="text-0"></path></svg></g></svg></g></svg></g></svg></g><g></g></svg></g><defs></defs></svg><rect width="257.95686832415726" height="247.2" fill="none" stroke="none" visibility="hidden"></rect></g></svg></g></svg>